<?xml version="1.0" encoding="UTF-8"?>
<svg id="TMA_Logo_RGB" data-name="TMA Logo RGB" xmlns="http://www.w3.org/2000/svg" viewBox="0 0 348.69 80.97">
  <defs>
    <style>
      .cls-1, .cls-2 {
        fill: #143351;
      }

      .cls-3, .cls-4 {
        fill: #4cbfd4;
      }

      .cls-2, .cls-4 {
        fill-rule: evenodd;
      }
    </style>
  </defs>
  <path class="cls-1" d="M173.06,53.56l-8.97-24.51-7.06,24.51h-13.16l12.62-43.47h13.56l8.42,23.07,6.7-23.07h13.16l-12.62,43.47h-12.64Z"/>
  <path class="cls-1" d="M225.75,9.37c12.84,0,22.05,8.08,21.23,19.81-.97,13.88-12.71,25.16-27.83,25.16-12.9,0-22.11-8.15-21.28-19.94.97-13.88,12.76-25.03,27.88-25.03ZM224.16,20.97c-6.91,0-12.14,5.87-12.61,12.51-.37,5.34,3.26,9.26,9.13,9.26,6.91,0,12.14-5.87,12.61-12.51.37-5.35-3.26-9.26-9.13-9.26Z"/>
  <g>
    <path class="cls-3" d="M146.51,62.46h2.42l2.2,11.28h-2.4l-.35-1.9h-6.59l-1.42,1.9h-2.41l8.55-11.28ZM148.02,69.96l-.96-5.12-3.85,5.12h4.81Z"/>
    <path class="cls-3" d="M159.4,62.46h5.74c.87,0,1.59.09,2.17.27s1.03.44,1.35.78.51.76.57,1.25c.06.49,0,1.05-.17,1.67-.12.42-.29.82-.5,1.19-.21.38-.46.73-.77,1.04-.3.32-.65.6-1.03.85-.39.25-.82.45-1.3.62l1.41,3.61h-2.8l-1.2-3.2h-3.53s-.93,3.2-.93,3.2h-2.29l3.25-11.28ZM163.44,68.55c.43,0,.83-.05,1.18-.15.35-.1.67-.24.94-.43s.5-.41.68-.67.32-.55.42-.88c.18-.63.11-1.12-.23-1.46-.33-.34-.94-.52-1.81-.52h-3.51l-1.18,4.1h3.51Z"/>
    <path class="cls-3" d="M176.16,62.46h2.29l-1.68,5.84,7.64-5.84h2.93l-7.11,5.38,3.86,5.9h-3.05l-2.92-4.3-2.15,1.62-.77,2.68h-2.29l3.25-11.28Z"/>
    <path class="cls-3" d="M197.59,68.07c.25-.85.63-1.63,1.14-2.34s1.13-1.31,1.84-1.82c.71-.51,1.5-.9,2.37-1.18.87-.28,1.79-.42,2.75-.42s1.79.14,2.51.42,1.28.67,1.7,1.18c.42.51.68,1.11.79,1.82.11.71.04,1.49-.2,2.34s-.63,1.64-1.15,2.36c-.52.71-1.13,1.33-1.85,1.84-.71.51-1.51.92-2.38,1.2s-1.79.43-2.75.43-1.8-.14-2.51-.43c-.71-.29-1.27-.69-1.69-1.2-.42-.51-.68-1.13-.79-1.84s-.04-1.5.21-2.36ZM199.88,68.07c-.17.58-.21,1.11-.14,1.57.07.47.25.86.53,1.19.28.33.65.58,1.1.76.46.18.98.27,1.58.27s1.17-.09,1.73-.27c.56-.18,1.07-.43,1.54-.76.47-.33.87-.73,1.22-1.19s.6-.99.77-1.57.21-1.1.13-1.57-.26-.85-.54-1.17-.65-.56-1.11-.73-.99-.25-1.58-.25-1.17.08-1.73.25c-.56.17-1.07.41-1.53.73s-.87.71-1.21,1.17c-.34.46-.6.98-.77,1.57Z"/>
    <path class="cls-3" d="M217.9,62.46h10.09l-.58,2.01h-7.8l-.85,2.95h6.62l-.54,1.88h-6.62l-1.28,4.44h-2.29l3.25-11.28Z"/>
    <path class="cls-3" d="M241.6,62.46h2.29l-.85,2.94h7.01l.85-2.94h2.29l-3.25,11.28h-2.29l1.84-6.38h-7.01l-1.84,6.38h-2.29l3.25-11.28Z"/>
    <path class="cls-3" d="M259.65,62.46h9.6l-.58,2.01h-7.32l-.65,2.25h6.48l-.54,1.88h-6.48l-.9,3.14h7.47l-.58,2h-9.76l3.25-11.28Z"/>
    <path class="cls-3" d="M279.04,62.46h2.42l2.2,11.28h-2.4l-.35-1.9h-6.59l-1.42,1.9h-2.41l8.55-11.28ZM280.55,69.96l-.96-5.12-3.85,5.12h4.81Z"/>
    <path class="cls-3" d="M291.92,62.46h2.29l-2.67,9.27h6.56l-.58,2.01h-8.85l3.25-11.28Z"/>
    <path class="cls-3" d="M309.06,64.47h-4.16l.58-2.01h10.61l-.58,2.01h-4.16l-2.67,9.27h-2.29l2.67-9.27Z"/>
    <path class="cls-3" d="M321.77,62.46h2.29l-.85,2.94h7.01l.85-2.94h2.29l-3.25,11.28h-2.29l1.84-6.38h-7.01l-1.84,6.38h-2.29l3.25-11.28Z"/>
  </g>
  <path class="cls-4" d="M2.4,34.36s-6.56,12.47,2,24.23c8.55,11.76,29.45,19.13,42.46,20.89-13.69-20.45-16.21-27.45-23.59-34.94-7.38-7.49-14.47-10.17-20.86-10.18Z"/>
  <circle class="cls-3" cx="43.78" cy="23.3" r="1.27"/>
  <path class="cls-4" d="M47.97,68.89s18.47,12.86,51.92,3.34c-1.93,5.53-3.42,8.6-3.42,8.6,0,0-30.36,2.26-48.5-11.94Z"/>
  <circle class="cls-3" cx="242.18" cy="52.11" r="3.75"/>
  <path class="cls-1" d="M286.45,10.09h-16.55l-24.54,37.23c1.55,1.03,2.58,2.79,2.58,4.79,0,.5-.07.99-.19,1.45h8.42l3.32-5.61h16.62l.13,5.61h13.62l-3.41-43.47ZM266.05,37.01l9.52-15.97.38,15.97h-9.91Z"/>
  <circle class="cls-3" cx="295.27" cy="52.11" r="3.75"/>
  <path class="cls-1" d="M335.52,10.09l-4.46,15.38h-15.58l4.46-15.38h-13.16l-10.55,36.36c2.72.46,4.79,2.82,4.79,5.66,0,.5-.07.99-.19,1.45h6.5l4.81-16.62h15.58l-4.81,16.62h13.16l12.62-43.47h-13.16Z"/>
  <path class="cls-2" d="M43.99,65.07c2.09,1.73,18.62,14.17,52.74,4.65C102.97,47.25,116.14,0,116.14,0h-35.57l-14.54,45.38L49.93,0H13.71L3.87,28.9s11.92-14.4,27.9-15.37c9.58-.58,16.42,6.15,15.45,10.55-1.1,5.02.28,6.18-1.45,10.23-2.95-3.63-5.05-8.84-10.53-7.52-1.01.24-1.88.61-2.63,1.06,0,0,0,0-.01,0-.06.03-.11.07-.17.11-.06.04-.12.07-.18.11-5.38,3.56-5.57,13.48-5.28,14.61.14-2.21.66-3.98,1.31-5.38,0,1.96.32,3.39.32,3.39,0,0,2.54,13.13,15.38,24.37Z"/>
</svg>