<?xml version="1.0" encoding="UTF-8"?>
<svg id="TMA_Logo_RGB" data-name="TMA Logo RGB" xmlns="http://www.w3.org/2000/svg" viewBox="0 0 216.47 121.88">
  <defs>
    <style>
      .cls-1, .cls-2 {
        fill: #143351;
      }

      .cls-3, .cls-4 {
        fill: #4cbfd4;
      }

      .cls-2, .cls-4 {
        fill-rule: evenodd;
      }
    </style>
  </defs>
  <g>
    <path class="cls-1" d="M55.87,106.68l-6.69-18.27-5.26,18.27h-9.81l9.41-32.4h10.1l6.28,17.2,4.99-17.2h9.81l-9.41,32.4h-9.42Z"/>
    <path class="cls-1" d="M95.14,73.75c9.57,0,16.43,6.02,15.82,14.77-.72,10.35-9.47,18.75-20.74,18.75-9.62,0-16.48-6.07-15.86-14.86.72-10.35,9.51-18.65,20.78-18.65ZM93.95,82.39c-5.15,0-9.05,4.37-9.39,9.33-.28,3.98,2.43,6.9,6.8,6.9,5.15,0,9.05-4.37,9.39-9.33.28-3.98-2.43-6.9-6.8-6.9Z"/>
    <g>
      <path class="cls-3" d="M36.08,113.31h1.81l1.64,8.41h-1.79l-.26-1.41h-4.91l-1.06,1.41h-1.8l6.37-8.41ZM37.21,118.9l-.72-3.82-2.87,3.82h3.59Z"/>
      <path class="cls-3" d="M45.69,113.31h4.28c.65,0,1.19.07,1.62.2s.77.33,1.01.58.38.56.43.93c.05.37,0,.78-.13,1.24-.09.31-.21.61-.37.89-.16.28-.35.54-.57.78-.22.24-.48.45-.77.63-.29.18-.61.34-.97.46l1.05,2.69h-2.09l-.89-2.39h-2.63s-.69,2.39-.69,2.39h-1.7l2.42-8.41ZM48.7,117.85c.32,0,.62-.04.88-.11.26-.08.5-.18.7-.32s.37-.3.51-.5.24-.41.31-.65c.14-.47.08-.83-.17-1.09-.25-.26-.7-.38-1.35-.38h-2.61l-.88,3.05h2.61Z"/>
      <path class="cls-3" d="M58.18,113.31h1.7l-1.25,4.35,5.69-4.35h2.18l-5.3,4.01,2.87,4.39h-2.27l-2.17-3.21-1.6,1.21-.58,2h-1.7l2.42-8.41Z"/>
      <path class="cls-3" d="M74.15,117.49c.18-.63.47-1.22.85-1.74s.84-.98,1.37-1.36c.53-.38,1.12-.67,1.77-.88.65-.21,1.33-.31,2.05-.31s1.34.1,1.87.31.95.5,1.27.88c.31.38.51.83.59,1.36.08.53.03,1.11-.15,1.74s-.47,1.22-.86,1.76c-.39.53-.85.99-1.38,1.37-.53.38-1.12.68-1.78.9s-1.34.32-2.05.32-1.34-.11-1.87-.32c-.53-.21-.95-.51-1.26-.9-.31-.38-.51-.84-.59-1.37s-.03-1.12.16-1.76ZM75.85,117.49c-.13.43-.16.82-.1,1.17.06.35.19.64.39.89.21.25.48.43.82.57.34.13.73.2,1.18.2s.87-.07,1.29-.2c.42-.13.8-.32,1.14-.57.35-.25.65-.54.91-.89s.45-.74.57-1.17.16-.82.1-1.17-.19-.64-.4-.87-.48-.42-.82-.55-.74-.19-1.18-.19-.87.06-1.29.19c-.41.13-.79.31-1.14.55s-.65.53-.9.87c-.26.34-.45.73-.57,1.17Z"/>
      <path class="cls-3" d="M89.29,113.31h7.52l-.43,1.5h-5.81l-.63,2.2h4.94l-.4,1.4h-4.94l-.95,3.31h-1.7l2.42-8.41Z"/>
      <path class="cls-3" d="M106.95,113.31h1.7l-.63,2.19h5.23l.63-2.19h1.71l-2.42,8.41h-1.71l1.37-4.75h-5.23l-1.37,4.75h-1.7l2.42-8.41Z"/>
      <path class="cls-3" d="M120.4,113.31h7.16l-.43,1.5h-5.45l-.48,1.68h4.83l-.4,1.4h-4.83l-.67,2.34h5.57l-.43,1.49h-7.27l2.42-8.41Z"/>
      <path class="cls-3" d="M134.85,113.31h1.81l1.64,8.41h-1.79l-.26-1.41h-4.91l-1.06,1.41h-1.8l6.37-8.41ZM135.98,118.9l-.72-3.82-2.87,3.82h3.59Z"/>
      <path class="cls-3" d="M144.46,113.31h1.7l-1.99,6.91h4.89l-.43,1.5h-6.59l2.42-8.41Z"/>
      <path class="cls-3" d="M157.22,114.81h-3.1l.43-1.5h7.91l-.43,1.5h-3.1l-1.99,6.91h-1.7l1.99-6.91Z"/>
      <path class="cls-3" d="M166.7,113.31h1.7l-.63,2.19h5.23l.63-2.19h1.71l-2.42,8.41h-1.71l1.37-4.75h-5.23l-1.37,4.75h-1.7l2.42-8.41Z"/>
    </g>
    <circle class="cls-3" cx="107.38" cy="105.6" r="2.79"/>
    <path class="cls-1" d="M140.37,74.28h-12.34l-18.29,27.75c1.16.77,1.92,2.08,1.92,3.57,0,.37-.05.74-.14,1.08h6.28l2.48-4.18h12.39l.1,4.18h10.15l-2.54-32.4ZM125.18,94.34l7.1-11.9.28,11.9h-7.38Z"/>
    <circle class="cls-3" cx="146.95" cy="105.6" r="2.79"/>
    <path class="cls-1" d="M176.95,74.28l-3.33,11.46h-11.61l3.33-11.46h-9.81l-7.87,27.1c2.02.34,3.57,2.1,3.57,4.22,0,.37-.05.74-.14,1.08h4.84l3.59-12.39h11.61l-3.59,12.39h9.81l9.41-32.4h-9.81Z"/>
  </g>
  <g>
    <path class="cls-4" d="M69.51,25.66s-4.89,9.29,1.49,18.06c6.37,8.76,21.95,14.26,31.64,15.57-10.2-15.24-12.08-20.46-17.58-26.04s-10.78-7.58-15.55-7.59Z"/>
    <circle class="cls-3" cx="100.34" cy="17.42" r=".94"/>
    <path class="cls-4" d="M103.47,51.4s13.77,9.59,38.7,2.49c-1.44,4.12-2.55,6.41-2.55,6.41,0,0-22.63,1.68-36.15-8.9Z"/>
    <path class="cls-2" d="M100.5,48.54c1.55,1.29,13.88,10.56,39.31,3.47C144.46,35.26,154.28.05,154.28.05h-26.51l-10.84,33.82L104.93.05h-26.99l-7.34,21.54s8.88-10.74,20.79-11.46c7.14-.43,12.24,4.58,11.51,7.87-.82,3.74.21,4.61-1.08,7.63-2.2-2.71-3.77-6.59-7.85-5.61-.76.18-1.4.45-1.96.79,0,0,0,0,0,0-.04.02-.08.05-.12.08-.04.03-.09.06-.13.08-4.01,2.65-4.15,10.05-3.93,10.89.1-1.65.49-2.97.98-4.01,0,1.46.24,2.53.24,2.53,0,0,1.89,9.79,11.46,18.17Z"/>
  </g>
</svg>